<svg id="Calque_1" data-name="Calque 1" xmlns="http://www.w3.org/2000/svg" viewBox="0 0 263.34 85.67"><defs><style>.cls-1{fill:#5b798c;}</style></defs><title>_Plan de travail 1</title><g id="_Groupe_" data-name="&lt;Groupe&gt;"><g id="_Groupe_2" data-name="&lt;Groupe&gt;"><path id="_Tracé_transparent_" data-name="&lt;Tracé transparent&gt;" class="cls-1" d="M16.15,84.54H-.06v-81H16.15V44.05L46.31,3.56H64.72L39.13,37.73,64.72,84.54H46.31L28.52,51.79,16.15,68.34Z"/><path id="_Tracé_transparent_2" data-name="&lt;Tracé transparent&gt;" class="cls-1" d="M143.61,62.69a22.45,22.45,0,0,1-1.81,9A22.91,22.91,0,0,1,136.86,79a23.48,23.48,0,0,1-7.34,4.91,22.59,22.59,0,0,1-9,1.81,23.11,23.11,0,0,1-8.25-1.5,22.75,22.75,0,0,1-7.17-4.38A22.19,22.19,0,0,1,98,84.18a23,23,0,0,1-8.27,1.5,22.38,22.38,0,0,1-9-1.81A23.56,23.56,0,0,1,73.44,79a22.89,22.89,0,0,1-4.94-7.31,22.43,22.43,0,0,1-1.81-9V24.17H82.11V62.69a7.45,7.45,0,0,0,.59,3,7.68,7.68,0,0,0,4.07,4.07,7.45,7.45,0,0,0,3,.59,7.66,7.66,0,0,0,3-.59,7.93,7.93,0,0,0,2.48-1.64,7.44,7.44,0,0,0,2.26-5.39V24.17h15.36V62.69a7.14,7.14,0,0,0,.62,3,8,8,0,0,0,1.67,2.43,7.66,7.66,0,0,0,2.43,1.64,7.45,7.45,0,0,0,3,.59A7.7,7.7,0,0,0,126,68.08a8.09,8.09,0,0,0,1.67-2.43,7.16,7.16,0,0,0,.62-3V24.17h15.36Z"/><path id="_Tracé_transparent_3" data-name="&lt;Tracé transparent&gt;" class="cls-1" d="M213.25,53.76a32.59,32.59,0,0,1-2.43,12.62,31.59,31.59,0,0,1-6.61,10.11,30.91,30.91,0,0,1-9.8,6.72,30.68,30.68,0,0,1-24.06,0,31,31,0,0,1-16.46-16.83,32.57,32.57,0,0,1-2.43-12.62A33.08,33.08,0,0,1,153.89,41a31.26,31.26,0,0,1,6.64-10.14,30.86,30.86,0,0,1,9.83-6.69,29.94,29.94,0,0,1,12-2.43A31.68,31.68,0,0,1,194.41,24a29.16,29.16,0,0,1,9.8,6.49,30.8,30.8,0,0,1,6.61,10.11A34.22,34.22,0,0,1,213.25,53.76Zm-15.53,0A18,18,0,0,0,196.5,47a16.06,16.06,0,0,0-3.3-5.2,14.3,14.3,0,0,0-4.89-3.33,15.91,15.91,0,0,0-11.92,0,14,14,0,0,0-4.86,3.33,15.91,15.91,0,0,0-3.25,5.2,18.33,18.33,0,0,0-1.19,6.75,17.46,17.46,0,0,0,1.19,6.49,16.3,16.3,0,0,0,3.25,5.2,15.19,15.19,0,0,0,4.86,3.47,14.22,14.22,0,0,0,6,1.27,15.1,15.1,0,0,0,6-1.19,14.82,14.82,0,0,0,4.89-3.33,15.66,15.66,0,0,0,3.3-5.2A18,18,0,0,0,197.72,53.76Z"/><path id="_Tracé_transparent_4" data-name="&lt;Tracé transparent&gt;" class="cls-1" d="M251.65,84.54a26.26,26.26,0,0,1-10.5-2.12A27.33,27.33,0,0,1,226.72,68a26.26,26.26,0,0,1-2.12-10.5v-18h-7.51V24.17h7.51V0H240V24.17h23.38V39.53H240v18a11.46,11.46,0,0,0,.9,4.55,11.6,11.6,0,0,0,2.49,3.7,11.9,11.9,0,0,0,3.73,2.51,11.36,11.36,0,0,0,4.58.93h11.69V84.54Z"/></g></g></svg>